<?xml version="1.0" encoding="iso-8859-1"?>
<!-- Uploaded to: SVG Repo, www.svgrepo.com, Generator: SVG Repo Mixer Tools -->
<svg height="400px" width="400px" version="1.1" id="Layer_1" xmlns="http://www.w3.org/2000/svg" xmlns:xlink="http://www.w3.org/1999/xlink" 
	 viewBox="0 0 512.004 512.004" xml:space="preserve">
<path style="fill:#FF6F52;" d="M320.495,266.246l145.828,151.003c17.642,18.268,18.208,47.051,1.298,65.999l0,0
	c-18.782,21.045-51.491,21.689-71.088,1.398L201.351,282.539"/>
<path style="fill:#E25749;" d="M431.641,484.646L236.459,282.539l88.13-12.05l-4.096-4.241l-119.144,16.292l195.182,202.108
	c14.064,14.563,34.884,18.341,52.461,11.533C442.646,493.722,436.705,489.889,431.641,484.646z"/>
<path style="fill:#FF6F52;" d="M252.646,332.516v0.012l-1.439,1.638l-22.224,25.255L116.858,486.829
	c-16.77,19.076-45.419,21.978-65.688,6.671c-17.355-13.154-23.289-35.577-16.489-54.863c2.013-5.676,5.114-11.083,9.351-15.892
	l117.473-133.518l22.083-25.091L252.646,332.516z"/>
<path style="fill:#E25749;" d="M86.282,493.5c-17.355-13.154-23.289-35.577-16.489-54.863c2.013-5.676,5.114-11.083,9.351-15.892
	l117.473-133.518l5.733-6.514l-18.762-18.577l-22.083,25.091L44.032,422.744c-4.236,4.81-7.338,10.217-9.351,15.892
	c-6.799,19.286-0.866,41.709,16.489,54.863c13.847,10.458,31.602,12.41,46.811,6.521C93.888,498.43,89.947,496.267,86.282,493.5z"/>
<path style="fill:#57989d;" d="M259.925,183.04c-7.36-17.409-11.439-36.542-11.439-56.631c0-46.983,22.268-88.76,56.818-115.374
	c-45.625-8.046-94.348,5.753-129.334,41.416c-55.405,56.479-55.234,147.909,0.371,204.19l77.563,80.315l66.589-70.711
	C320.495,266.246,273.562,209.143,259.925,183.04z"/>
<path style="fill:#E25749;" d="M252.646,332.516v0.012l-1.439,1.638l-22.224,25.255l-60.831-62.985
	c-2.317-2.341-4.529-4.751-6.647-7.209l22.083-25.091L252.646,332.516z"/>
<path style="fill:#57989d;" d="M320.495,266.246c0,0,87.483-98.833,37.76-185.873c0,0-77.704,27.382-98.328,102.667"/>
<path style="fill:#57989d;" d="M358.241,80.39c-0.398,1.463-25.922,93.763-81.3,126.028l-17.016-23.382
	C280.382,108.336,357.047,80.811,358.241,80.39z"/>
<path d="M472.764,411.152l-90.132-93.33c-3.368-3.486-8.925-3.586-12.41-0.216c-3.486,3.367-3.585,8.923-0.216,12.411l90.132,93.33
	c14.369,14.879,14.837,38.624,1.063,54.058c-7.439,8.337-17.691,13.05-28.864,13.27c-11.195,0.207-21.599-4.085-29.362-12.124
	L266.161,336.881l54.542-57.917l30.869,31.964c1.723,1.783,4.016,2.68,6.315,2.68c2.194,0,4.393-0.818,6.096-2.463
	c3.486-3.367,3.585-8.923,0.216-12.411l-31.829-32.959c7.655-9.747,22.289-30.089,33.814-56.291
	c21.649-49.212,21.587-95.363-0.178-133.464c-2.104-3.682-6.541-5.331-10.538-3.925c-2.413,0.85-59.416,21.436-90.228,75.653
	c-2.396,4.214-0.92,9.573,3.293,11.967c4.218,2.396,9.573,0.921,11.968-3.294c17.479-30.759,45.188-49.727,63.185-59.51
	c-8.194,22.249-25.833,62.776-53.123,88.388c-3.534,3.317-3.711,8.872-0.393,12.406c1.729,1.841,4.062,2.771,6.403,2.771
	c2.152,0,4.311-0.788,6.005-2.377c14.529-13.636,27.959-32.141,39.913-54.999c7.413-14.171,13.076-27.766,17.099-38.568
	c9.505,28.881,6.413,61.563-9.292,97.467c-9.76,22.315-22.221,40.391-29.699,50.257c-13.328-16.626-42.441-53.73-52.597-72.969
	c-7.039-16.768-10.606-34.556-10.606-52.882c0-42.763,19.463-82.281,53.396-108.42c2.755-2.122,3.998-5.671,3.168-9.047
	c-0.83-3.377-3.575-5.946-6.998-6.55c-31.618-5.576-63.615-1.342-92.544,12.238c-4.389,2.06-6.276,7.287-4.217,11.675
	c2.061,4.389,7.291,6.276,11.675,4.215c19.773-9.28,41.181-13.635,62.779-12.873c-28.697,28.769-44.812,67.419-44.812,108.763
	c0,20.806,4.082,41.009,12.132,60.05c0.092,0.22,0.194,0.435,0.305,0.646c11.39,21.807,44.172,63.2,56.691,78.717l-54.676,58.06
	c-0.257-0.044-0.517-0.08-0.782-0.102l-70.794-73.305c-52.176-52.809-52.333-138.885-0.349-191.875
	c4.657-4.749,9.678-9.181,14.921-13.173c3.856-2.936,4.603-8.444,1.665-12.3c-2.935-3.856-8.442-4.604-12.301-1.666
	c-5.912,4.502-11.571,9.497-16.817,14.847c-58.657,59.793-58.48,156.916,0.323,216.433l25,25.888
	c0.002,0.002,0.005,0.006,0.008,0.009l44.236,45.806l-129.01,146.592c-13.654,15.539-37.285,17.937-53.791,5.465
	c-13.857-10.496-19.286-28.557-13.514-44.935c1.69-4.783,4.268-9.166,7.662-13.023l119.863-136.227
	c3.202-3.638,2.848-9.186-0.792-12.387c-3.638-3.203-9.186-2.85-12.387,0.792L37.571,416.944
	c-4.88,5.548-8.591,11.862-11.035,18.774c-8.324,23.616-0.501,49.646,19.477,64.779c10.24,7.738,22.379,11.507,34.457,11.507
	c15.999,0,31.888-6.614,43.106-19.379L251.636,347.11l138.711,143.632c10.771,11.154,25.738,17.492,41.22,17.491
	c0.37,0,0.744-0.003,1.114-0.011c15.875-0.312,31.043-7.286,41.616-19.132C494.156,466.841,493.482,432.605,472.764,411.152z"/>
<path d="M278.902,262.286c0-15.214-12.377-27.591-27.589-27.591s-27.589,12.377-27.589,27.591s12.377,27.589,27.589,27.589
	S278.902,277.499,278.902,262.286z M241.277,262.286c0-5.534,4.502-10.036,10.035-10.036c5.533,0,10.035,4.502,10.035,10.036
	s-4.502,10.035-10.035,10.035C245.779,272.321,241.277,267.82,241.277,262.286z"/>
</svg>